<?xml version="1.0" standalone="no"?><!DOCTYPE svg PUBLIC "-//W3C//DTD SVG 1.1//EN" "http://www.w3.org/Graphics/SVG/1.1/DTD/svg11.dtd"><svg t="1717753323734" class="icon" viewBox="0 0 1024 1024" version="1.1" xmlns="http://www.w3.org/2000/svg" p-id="10947" width="16" height="16" xmlns:xlink="http://www.w3.org/1999/xlink"><path d="M305.2 223.5c-26.2-28.7-29.6-67.2-46.5-100.4-16.4-20.1-27.5-51.3-54.2-59.2-33.5 27.5-20.7 74.5-21.4 111.6-0.8 26.9 34.5 52.8 14.2 61.3-2.4 38.4 7.8 75.8 10.1 113.9-1.2 13.5 9.3 25.6 21.1 34.8-12.4-7.8-21.2-9.7-16.4 16.3 14.4 36.3 22.4 67 27.2 107.6-1.7 17.6 22.5 35.2 2.3 38.6 2.2 33.1 14.8 93.6 8.4 108.3 5.4 35 13.9 69.3 18.1 105.2-5.5 16 16.2 31.4 24 34.7-33.9 9.1 50.7 34.5 7.3 29.7-34.9 4 22.6 20.9-12.9 23.8-25.3 15.5 58-15.3 16.1 12.4-21.1 19.4 43-13.8 15.1 10.2-16.9 22.6-72 58.8-66 70.9 33.3-9.9 68.2-62.3 93.6-59.2 1.7 22.3-13.1 70.1-0.1 75.9 8.6-17.5 13.3-74.6 23.5-66.1 2.7 24.2 21.5 36.3 11.6 4.9-0.9-20.8-0.9-49.2 3.1-11.6-1.3 10.5 10.9 34.8 10.9 9.2 34.2 29.9-13.5-44 23.2-17 30.9 3.1-48.5-47.5-9.3-26.1 23.1 19-0.9-12.5 21.5 0.2 34.8-1.3 51.8-28.1 71.1-47.5-21.6 0.2 31.7-15.2 34.3-33.3 4.9-17.3 49.3-42.7 35.8-51.6 12.3-7.5 39.1-48.2 48.6-73.8-3 1.5-6.4 2.9-9.8 4 15.2-8.4 38.8-40.8 34.4-48.9-5.9 2.4-9.8 4.1-12.2 5.2 8.1-4.3 29.4-17.7 26.4-33.5 25.9-37.9 28.1-56.9 51-92.8 3.7-11.4 14.2-28.5 10.3-31.3 11.6-10.1 23-27.3 19.8-37.5 13.7-23.8 38.6-77.9 30.7-92-24.1 18.6 26.7-20.6 22.7-37.9 10.2-20.7-2.4-17.9-5.3-16.6 14.6-19.2 21.4-51.6 25.5-57.7 15.8-26 25-58.4 25.8-89.4-21.2 39.3 32.1-58.3-18.4-45.8-29.2 16.9-58.1 38.1-75.6 67.9-16.8 13.6-20.2 31.9-19.1 51.3-2.5-12.6-6.8-16.4-15.9 7.3-1.6 3.7-1.9 10.2-1.6 17.6-2.1-8.4-6.4-10.7-13.6 7.3-36.8 23.1-49.4 68-79.2 98-9 10.2-11 25-9.9 39.7-1.4-7.7-3.1-13.4-6.1-14.5-19 20-32.3 47.2-38.5 70.6-4.7-7.3-23.4 38.4-34.5 51.4-10.6 10.2-20.5 31.9-24.1 48.1-3.6-9.2-12.9-5.8-21.7 11.9-12.6 12.9-23.3 28.5-23.8 45.7-2.8-9.5-6.6-11.5-16 10.2-18.9 30.9-19.4-26.4-27.9-23.4 5.9-22.3-9.9-57.8-12.7-40.7 2.8-35.2-13.5-67.6-23.1-103.4-24.2-105.2-57.7-150.8-71.9-194.5z" fill="" p-id="10948"></path></svg>