<?xml version="1.0" standalone="no"?><!DOCTYPE svg PUBLIC "-//W3C//DTD SVG 1.1//EN" "http://www.w3.org/Graphics/SVG/1.1/DTD/svg11.dtd"><svg t="1710923872987" class="icon" viewBox="0 0 1024 1024" version="1.1" xmlns="http://www.w3.org/2000/svg" p-id="973" width="16" height="16" xmlns:xlink="http://www.w3.org/1999/xlink"><path d="M510.720017 3.519954c14.079815-4.671939 29.247616-4.671939 43.327431 0l397.434784 131.326276c29.567612 9.727872 49.279353 38.0795 49.279353 69.567087v183.677589a984.435079 984.435079 0 0 1-21.439719 183.933586c-24.319681 116.478471-66.687125 216.701156-132.286263 289.148205-40.127473 44.22342-97.662718 81.470931-166.781811 112.894518a911.98803 911.98803 0 0 1-129.470301 47.359379 65.919135 65.919135 0 0 1-36.60752 0 912.436024 912.436024 0 0 1-129.662298-47.359379c-69.119093-31.359588-126.718337-68.671099-166.781811-112.894518-65.599139-72.447049-107.902584-172.605735-132.286263-289.148205A984.755075 984.755075 0 0 1 64.00588 387.770911V204.413317c0-31.487587 19.711741-59.839215 49.279353-69.567087zM532.479731 63.99916l-1.599979 0.255997-397.498783 131.390275c-2.879962 0.959987-5.31193 4.479941-5.31193 8.767885v183.037598c0.511993 42.623441 5.951922 103.678639 20.095736 171.517749 22.271708 106.366604 60.415207 196.669419 117.118463 259.196598 33.215564 36.735518 83.8389 69.503088 145.726088 97.598719 42.879437 19.455745 85.118883 34.175551 120.574417 44.031422l0.895988 0.191997 19.199748-5.567927c31.167591-9.535875 66.559126-22.399706 102.206659-38.655492 61.823189-28.095631 112.510523-60.863201 145.726087-97.53472 56.703256-62.591178 94.846755-152.957992 117.118463-259.324597 14.143814-67.711111 19.583743-128.830309 20.095736-171.133753V204.413317c0-4.351943-2.431968-7.807898-5.31193-8.767885l-397.434784-131.390275a4.991934 4.991934 0 0 0-3.199958 0z m238.588869 266.940496a31.99958 31.99958 0 0 1 3.711951 40.831465l-3.711951 4.479941-268.796472 268.796472a31.99958 31.99958 0 0 1-40.831464 3.647952l-4.479942-3.711951-115.198488-115.198488a31.99958 31.99958 0 0 1 40.895464-48.959358l4.415942 3.711951 92.542785 92.606785L725.757194 330.875657a31.99958 31.99958 0 0 1 45.247407 0z" fill="#000000" p-id="974"></path></svg>